<svg  xmlns="http://www.w3.org/2000/svg" class="Sparkline" width="44" height="16" stroke-width="1"><path d="M 0 16 L 1 15.9920145124197 L 3.210526315789474 15.99179232120514 L 5.421052631578948 15.992081493139267 L 7.631578947368421 15.991790011525154 L 9.842105263157896 15.991973400115967 L 12.05263157894737 15.99184775352478 L 14.263157894736842 15.991997882723808 L 16.473684210526315 15.99182465672493 L 18.68421052631579 15.992067635059357 L 20.894736842105264 15.991695314645767 L 23.10526315789474 15.99201312661171 L 25.315789473684212 15.99171656370163 L 27.526315789473685 15.992012664675713 L 29.73684210526316 15.991664364933968 L 31.947368421052634 15.991827890276909 L 34.15789473684211 15.991873160004616 L 36.36842105263158 15.991790011525154 L 38.578947368421055 15.991948455572128 L 40.78947368421053 15.99179694056511 L 43.00000000000001 15.991901338100433 V 16 Z" stroke="none"></path><path d="M 1 15.9920145124197 L 3.210526315789474 15.99179232120514 L 5.421052631578948 15.992081493139267 L 7.631578947368421 15.991790011525154 L 9.842105263157896 15.991973400115967 L 12.05263157894737 15.99184775352478 L 14.263157894736842 15.991997882723808 L 16.473684210526315 15.99182465672493 L 18.68421052631579 15.992067635059357 L 20.894736842105264 15.991695314645767 L 23.10526315789474 15.99201312661171 L 25.315789473684212 15.99171656370163 L 27.526315789473685 15.992012664675713 L 29.73684210526316 15.991664364933968 L 31.947368421052634 15.991827890276909 L 34.15789473684211 15.991873160004616 L 36.36842105263158 15.991790011525154 L 38.578947368421055 15.991948455572128 L 40.78947368421053 15.99179694056511 L 43.00000000000001 15.991901338100433" fill="none"></path><path class="Sparkline-cursor" stroke-width="2"></path></svg>
