<?xml version="1.0" encoding="UTF-8"?>
<svg width="20px" height="20px" viewBox="0 0 20 20" version="1.1" xmlns="http://www.w3.org/2000/svg" xmlns:xlink="http://www.w3.org/1999/xlink">
    <g id="页面-1" stroke="none" stroke-width="1" fill="none" fill-rule="evenodd">
        <g id="Telemetry" transform="translate(-896.000000, -270.000000)">
            <g id="blockchain" transform="translate(896.000000, 270.000000)">
                <rect id="_Transparent_Rectangle_" x="0" y="0" width="20" height="20"></rect>
                <path d="M3.18181818,15.4545455 L1.81818182,15.4545455 L1.81818182,4.54545455 L3.18181818,4.54545455 L3.18181818,15.4545455 Z M18.1818182,4.54545455 L16.8181818,4.54545455 L16.8181818,8.18181818 L18.1818182,8.18181818 L18.1818182,4.54545455 Z M15.4545455,3.18181818 L15.4545455,1.81818182 L4.54545455,1.81818182 L4.54545455,3.18181818 L15.4545455,3.18181818 Z M10,18.1818182 L10,16.8181818 L4.54545455,16.8181818 L4.54545455,18.1818182 L10,18.1818182 Z" id="形状" fill="#9B9CF8" fill-rule="nonzero"></path>
                <path d="M11.8181818,14.679845 L11.8181818,11.7644257 L15.4545455,10 L19.0909091,11.7644257 L19.0909091,14.679845 C19.0886046,16.6278486 17.4618983,19.0886727 15.4545455,19.0909091 C13.4471926,19.0886727 11.8204863,16.6278486 11.8181818,14.679845 Z" id="形状" fill="#9B9CF8" fill-rule="nonzero"></path>
            </g>
        </g>
    </g>
</svg>