<svg width="20px" height="20px" viewBox="0 0 20 20" version="1.1" xmlns="http://www.w3.org/2000/svg" xmlns:xlink="http://www.w3.org/1999/xlink">
  <g id="页面-1" stroke="none" stroke-width="1" fill="none" fill-rule="evenodd">
      <g id="Telemetry" transform="translate(-980.000000, -270.000000)">
          <g id="hashtag" transform="translate(980.000000, 270.000000)">
              <rect id="_Transparent_Rectangle_" x="0" y="0" width="20" height="20"></rect>
              <path d="M7.27272727,1.81818182 L7.27272727,5.90909091 L12.7272727,5.90909091 L12.7272727,1.81818182 L14.0909091,1.81818182 L14.0909091,5.90909091 L18.1818182,5.90909091 L18.1818182,7.27272727 L14.0909091,7.27272727 L14.0901818,8.18118182 L12.7271818,8.18118182 L12.7272727,7.27272727 L7.27272727,7.27272727 L7.27272727,12.7272727 L9.99918182,12.7271818 L9.99918182,14.0901818 L7.27272727,14.0909091 L7.27272727,18.1818182 L5.90909091,18.1818182 L5.90909091,14.0909091 L1.81818182,14.0909091 L1.81818182,12.7272727 L5.90909091,12.7272727 L5.90909091,7.27272727 L1.81818182,7.27272727 L1.81818182,5.90909091 L5.90909091,5.90909091 L5.90909091,1.81818182 L7.27272727,1.81818182 Z" id="形状" fill="#9B9CF8" fill-rule="nonzero"></path>
              <path d="M11.8298858,14.9568147 L11.8298858,12.0413953 L15.3587371,10.2769697 L18.8875884,12.0413953 L18.8875884,14.9568147 C18.8853521,16.9048183 17.3067408,19.3656424 15.3587371,19.3678788 C13.4107335,19.3656424 11.8321222,16.9048183 11.8298858,14.9568147 Z" id="路径" fill="#9B9CF8" fill-rule="nonzero"></path>
          </g>
      </g>
  </g>
</svg>
