<svg width="20px" height="20px" viewBox="0 0 20 20" version="1.1" xmlns="http://www.w3.org/2000/svg" xmlns:xlink="http://www.w3.org/1999/xlink">
    <g id="页面-1" stroke="none" stroke-width="1" fill="none" fill-rule="evenodd">
        <g id="Telemetry" transform="translate(-696.000000, -270.000000)">
            <g id="ibm--power-vs" transform="translate(696.000000, 270.000000)">
                <rect id="_x3C_Transparent_Rectangle_x3E__589_" x="0" y="0" width="20" height="20"></rect>
                <path d="M10,16.1363636 C8.63636364,16.1363636 7.27272727,15.6590909 6.18181818,14.7727273 L7.06818182,13.6818182 C7.95454545,14.3636364 8.97727273,14.7045455 10.0681818,14.7045455 C12.7272727,14.7045455 14.8409091,12.5909091 14.8409091,9.93181818 C14.8409091,9.72727273 14.8409091,9.45454545 14.7727273,9.25 L16.1363636,9.04545455 C16.1363636,9.38636364 16.1363636,9.72727273 16.1363636,10 C16.1363636,13.4090909 13.4090909,16.1363636 10,16.1363636 Z" id="路径" fill="#AFB0CC" fill-rule="nonzero"></path>
                <g id="1" transform="translate(7.913636, 6.758182)"></g>
                <path d="M3.93181818,10.8863636 C3.86363636,10.6136364 3.86363636,10.2727273 3.86363636,10 C3.86363636,6.59090909 6.59090909,3.86363636 10,3.86363636 C11.3636364,3.86363636 12.7272727,4.34090909 13.8181818,5.22727273 L12.9318182,6.31818182 C12.1136364,5.56818182 11.0909091,5.22727273 10,5.22727273 C7.34090909,5.22727273 5.22727273,7.34090909 5.22727273,10 C5.22727273,10.2045455 5.22727273,10.4772727 5.29545455,10.6818182 L3.93181818,10.8863636 Z" id="路径" fill="#AFB0CC" fill-rule="nonzero"></path>
                <polygon id="路径" fill="#9B9CF8" fill-rule="nonzero" points="8.63636364 12.5418182 8.63636364 7.27272727 10.1745455 7.27272727 10.1745455 11.3636364 12.5472727 11.3636364 12.5472727 12.5418182"></polygon>
                <circle id="椭圆形" fill="#AFB0CC" fill-rule="nonzero" cx="14.7727273" cy="17.5" r="1"></circle>
                <circle id="椭圆形" fill="#AFB0CC" fill-rule="nonzero" cx="5.22727273" cy="12.7272727" r="1"></circle>
                <circle id="椭圆形" fill="#AFB0CC" fill-rule="nonzero" cx="14.7727273" cy="7.27272727" r="1"></circle>
                <circle id="椭圆形" fill="#AFB0CC" fill-rule="nonzero" cx="5.22727273" cy="2.5" r="1"></circle>
                <path d="M10,19.5454545 C4.75,19.5454545 0.454545455,15.25 0.454545455,10 C0.454545455,7.47727273 1.47727273,5.02272727 3.25,3.25 L4.20454545,4.20454545 C2.63636364,5.77272727 1.81818182,7.81818182 1.81818182,10 C1.81818182,14.5 5.5,18.1818182 10,18.1818182 C10.9545455,18.1818182 11.9090909,18.0454545 12.7954545,17.7045455 L13.2727273,19 C12.25,19.3409091 11.0909091,19.5454545 10,19.5454545 Z" id="路径" fill="#AFB0CC" fill-rule="nonzero"></path>
                <path d="M16.75,16.75 L15.7954545,15.7954545 C17.3636364,14.2272727 18.1818182,12.1818182 18.1818182,10 C18.1818182,5.5 14.5,1.81818182 10,1.81818182 C9.04545455,1.81818182 8.09090909,1.95454545 7.20454545,2.29545455 L6.72727273,1 C7.75,0.659090909 8.90909091,0.454545455 10,0.454545455 C15.25,0.454545455 19.5454545,4.75 19.5454545,10 C19.5454545,12.5227273 18.5227273,14.9772727 16.75,16.75 Z" id="路径" fill="#AFB0CC" fill-rule="nonzero"></path>
            </g>
        </g>
    </g>
</svg>
