<svg width="20px" height="20px" viewBox="0 0 20 20" version="1.1" xmlns="http://www.w3.org/2000/svg" xmlns:xlink="http://www.w3.org/1999/xlink">
  <g id="页面-1" stroke="none" stroke-width="1" fill="none" fill-rule="evenodd">
    <g id="Telemetry" transform="translate(-1609.000000, -270.000000)">
        <g id="ibm-cloud--direct-link-1--dedicated-hosting备份-4" transform="translate(1609.000000, 270.000000)">
            <rect id="_x3C_Transparent_Rectangle_x3E__589_" x="0" y="0" width="20" height="20"></rect>
            <path d="M7.633,12.986 L7.63333333,17.5 L6.3,17.5 L6.3,12.982 L1.5,12.9666667 L1.5,11.6333333 L6.3,11.633 L6.3,7.633 L1.5,7.63333333 L1.5,6.3 L6.3,6.3 L6.3,1.5 L7.63333333,1.5 L7.633,6.3 L11.366,6.3 L11.3666667,1.5 L12.7,1.5 L12.7,6.3 L17.5,6.3 L17.5,7.63333333 L12.7,7.633 L12.7,12 L12,13 L7.633,12.986 Z M11.366,7.633 L7.633,7.633 L7.633,11.633 L11.366,11.633 L11.366,7.633 Z" id="形状结合备份" fill="#AFB0CC"></path>
            <path d="M17.1125,17.5 L12.886125,17.5 L15,13.272375 L17.1125,17.5 Z M15,11.25 C14.7632181,11.25 14.5467251,11.3836635 14.4408125,11.5954375 L11.3158125,17.8454375 C11.2190905,18.0392262 11.2295355,18.2692662 11.3434214,18.4534922 C11.4573073,18.6377182 11.6584147,18.7498934 11.875,18.75 L18.125,18.75 C18.3345486,18.75 18.5301789,18.6450872 18.6460033,18.4704581 C18.7618277,18.2958289 18.7824313,18.0747764 18.700875,17.88175 L15.559125,11.5954375 C15.4532225,11.3836837 15.2367594,11.25 15,11.25 Z" id="形状备份-3" fill="#9B9CF8" fill-rule="nonzero"></path>
        </g>
    </g>
  </g>
</svg>
