<svg width="20px" height="20px" viewBox="0 0 20 20" version="1.1" xmlns="http://www.w3.org/2000/svg" xmlns:xlink="http://www.w3.org/1999/xlink">
    <g id="页面-1" stroke="none" stroke-width="1" fill="none" fill-rule="evenodd">
        <g id="Telemetry" transform="translate(-828.000000, -270.000000)">
            <g id="cloud--upload备份" transform="translate(828.000000, 270.000000)">
                <rect id="_Transparent_Rectangle_" x="0" y="0" width="20" height="20"></rect>
                <polygon id="路径" fill="#9B9CF8" fill-rule="nonzero" transform="translate(10.056818, 11.363636) scale(1, -1) translate(-10.056818, -11.363636) " points="7.62608902 11.158286 9.37973485 9.41141098 9.37973485 15.9090909 10.7339015 15.9090909 10.7339015 9.41141098 12.4875473 11.158286 13.4422348 10.2035985 10.0568182 6.81818182 6.67140152 10.2035985"></polygon>
                <path d="M14.0909091,19.5454545 L5.90909091,19.5454545 C5.15909091,19.5454545 4.54545455,18.9318182 4.54545455,18.1818182 L4.54545455,16.1363636 L5.90909091,16.1363636 L5.90909091,18.1818182 L14.0909091,18.1818182 L14.0909091,16.1363636 L15.4545455,16.1363636 L15.4545455,18.1818182 C15.4545455,18.9318182 14.8409091,19.5454545 14.0909091,19.5454545 Z" id="路径备份" fill="#9B9CF8" fill-rule="nonzero"></path>
                <path d="M15.1136364,14.0909091 L14.7727273,14.0909091 L14.7727273,12.7272727 L15.1136364,12.7272727 C16.8081464,12.7950531 18.236765,11.4763282 18.3045454,9.78181818 C18.3723258,8.08730817 17.0536009,6.65868952 15.3590909,6.59090909 L14.7727273,6.59090909 L14.7045455,6.03181818 C14.3916551,3.65746913 12.3676038,1.88264709 9.97272727,1.88264709 C7.57785071,1.88264709 5.5537994,3.65746913 5.24090909,6.03181818 L5.22727273,6.59090909 L4.64090909,6.59090909 C2.94639908,6.65868952 1.62767419,8.08730817 1.69545459,9.78181818 C1.76323499,11.4763282 3.19185363,12.7950531 4.88636364,12.7272727 L5.22727273,12.7272727 L5.22727273,14.0909091 L4.88636364,14.0909091 C2.6221221,14.0765669 0.7328222,12.3577202 0.50508913,10.1049146 C0.277356059,7.85210904 1.78443687,5.78992688 4,5.32272727 C4.606554,2.49376507 7.1067432,0.472815609 10,0.472815609 C12.8932568,0.472815609 15.393446,2.49376507 16,5.32272727 C18.2155631,5.78992688 19.7226439,7.85210904 19.4949109,10.1049146 C19.2671778,12.3577202 17.3778779,14.0765669 15.1136364,14.0909091 L15.1136364,14.0909091 Z" id="路径" fill="#AFB0CC" fill-rule="nonzero"></path>
            </g>
        </g>
    </g>
</svg>
