<svg width="20px" height="20px" viewBox="0 0 20 20" version="1.1" xmlns="http://www.w3.org/2000/svg" xmlns:xlink="http://www.w3.org/1999/xlink">
    <g id="页面-1" stroke="none" stroke-width="1" fill="none" fill-rule="evenodd">
        <g id="Telemetry" transform="translate(-760.000000, -270.000000)">
            <g id="ibm-cloud--mass-data-migration" transform="translate(760.000000, 270.000000)">
                <rect id="_x3C_Transparent_Rectangle_x3E__232_" x="0" y="0" width="20" height="20"></rect>
                <path d="M14.0909091,19.5454545 L5.90909091,19.5454545 C5.15909091,19.5454545 4.54545455,18.9318182 4.54545455,18.1818182 L4.54545455,16.1363636 L5.90909091,16.1363636 L5.90909091,18.1818182 L14.0909091,18.1818182 L14.0909091,16.1363636 L15.4545455,16.1363636 L15.4545455,18.1818182 C15.4545455,18.9318182 14.8409091,19.5454545 14.0909091,19.5454545 Z" id="路径" fill="#9B9CF8" fill-rule="nonzero"></path>
                <polygon id="路径" fill="#9B9CF8" fill-rule="nonzero" points="9.31818182 9.18181818 9.31818182 16.1363636 10.6818182 16.1363636 10.6818182 9.18181818 12.4545455 10.9545455 13.4090909 10 10 6.59090909 6.59090909 10 7.54545455 10.9545455"></polygon>
                <path d="M16,5.29545455 C15.3863636,2.5 12.9318182,0.454545455 10,0.454545455 C7.06818182,0.454545455 4.61363636,2.5 4,5.29545455 C1.95454545,5.70454545 0.454545455,7.54545455 0.454545455,9.65909091 C0.454545455,12.1136364 2.43181818,14.0909091 4.88636364,14.0909091 L7.27272727,14.0909091 L7.27272727,12.7272727 L4.88636364,12.7272727 C3.18181818,12.7272727 1.81818182,11.3636364 1.81818182,9.65909091 C1.81818182,8.09090909 3.04545455,6.72727273 4.61363636,6.59090909 L5.22727273,6.59090909 L5.29545455,6.04545455 C5.56818182,3.59090909 7.61363636,1.81818182 10,1.81818182 C12.3863636,1.81818182 14.4318182,3.59090909 14.7045455,5.97727273 L14.7727273,6.59090909 L15.3181818,6.65909091 C16.8863636,6.79545455 18.1136364,8.15909091 18.1136364,9.72727273 C18.1136364,11.4318182 16.75,12.7954545 15.0454545,12.7954545 L12.7272727,12.7954545 L12.7272727,14.1590909 L15.1136364,14.1590909 C17.5681818,14.1590909 19.5454545,12.1818182 19.5454545,9.72727273 C19.5454545,7.54545455 18.0454545,5.70454545 16,5.29545455 Z" id="路径" fill="#AFB0CC" fill-rule="nonzero"></path>
            </g>
        </g>
    </g>
</svg>
