<svg width="20px" height="20px" viewBox="0 0 20 20" version="1.1" xmlns="http://www.w3.org/2000/svg" xmlns:xlink="http://www.w3.org/1999/xlink">
    <g id="页面-1" stroke="none" stroke-width="1" fill="none" fill-rule="evenodd">
        <g id="Telemetry" transform="translate(-1854.000000, -270.000000)">
            <g id="time-plot" transform="translate(1854.000000, 270.000000)">
                <polygon id="路径" fill="#9B9CF8" fill-rule="nonzero" points="15.1722727 7.95454545 13.4090909 6.19136364 13.4090909 3.18181818 14.7727273 3.18181818 14.7727273 5.62681818 16.1363636 6.99045455"></polygon>
                <path d="M14.0909091,11.3636364 C11.0784468,11.3636364 8.63636364,8.92155318 8.63636364,5.90909091 C8.63636364,2.89662864 11.0784468,0.454545455 14.0909091,0.454545455 C17.1033714,0.454545455 19.5454545,2.89662864 19.5454545,5.90909091 C19.5419978,8.9201202 17.1019384,11.3601796 14.0909091,11.3636364 L14.0909091,11.3636364 Z M14.0909091,1.81818182 C11.8315624,1.81818182 10,3.64974421 10,5.90909091 C10,8.16843761 11.8315624,10 14.0909091,10 C16.3502558,10 18.1818182,8.16843761 18.1818182,5.90909091 C18.1793381,3.65077228 16.3492277,1.82066188 14.0909091,1.81818182 L14.0909091,1.81818182 Z" id="形状" fill="#9B9CF8" fill-rule="nonzero"></path>
                <path d="M4.975,11.3636364 L9.74772727,15.4545455 L19.5454545,15.4545455 L19.5454545,14.0909091 L10.2522727,14.0909091 L5.47954545,10 L1.81818182,10 L1.81818182,0.454545455 L0.454545455,0.454545455 L0.454545455,18.1818182 C0.455484603,18.9345444 1.0654556,19.5445154 1.81818182,19.5454545 L19.5454545,19.5454545 L19.5454545,18.1818182 L1.81818182,18.1818182 L1.81818182,11.3636364 L4.975,11.3636364 Z" id="路径" fill="#AFB0CC" fill-rule="nonzero"></path>
                <rect id="_Transparent_Rectangle_" x="0" y="0" width="20" height="20"></rect>
            </g>
        </g>
    </g>
</svg>
