<?xml version="1.0" encoding="UTF-8"?>
<svg width="40px" height="40px" viewBox="0 0 40 40" version="1.1" xmlns="http://www.w3.org/2000/svg" xmlns:xlink="http://www.w3.org/1999/xlink">
    <g id="页面-1" stroke="none" stroke-width="1" fill="none" fill-rule="evenodd">
        <g id="Telemetry" transform="translate(-590.000000, -142.000000)">
            <g id="编组-5" transform="translate(40.000000, 142.000000)">
                <g id="ibm-cloud--direct-link-1--dedicated-hosting备份-3" transform="translate(550.000000, 0.000000)">
                    <rect id="_x3C_Transparent_Rectangle_x3E__589_" x="0" y="0" width="40" height="40"></rect>
                    <path d="M15.266,25.972 L15.2666667,35 L12.6,35 L12.6,25.964 L3,25.9333333 L3,23.2666667 L12.6,23.266 L12.6,15.266 L3,15.2666667 L3,12.6 L12.6,12.6 L12.6,3 L15.2666667,3 L15.266,12.6 L22.733,12.6 L22.7333333,3 L25.4,3 L25.4,12.6 L35,12.6 L35,15.2666667 L25.4,15.266 L25.4,24 L24,26 L15.266,25.972 Z M22.733,15.266 L15.266,15.266 L15.266,23.266 L22.733,23.266 L22.733,15.266 Z" id="形状结合备份" fill="#9B9CF8"></path>
                    <path d="M34.225,35 L25.77225,35 L30,26.54475 L34.225,35 Z M30,22.4999999 C29.5264361,22.4999999 29.0934501,22.767327 28.881625,23.190875 L22.631625,35.690875 C22.438181,36.0784524 22.4590711,36.5385323 22.6868428,36.9069843 C22.9146145,37.2754363 23.3168294,37.4997867 23.75,37.4999999 L36.25,37.4999999 C36.6690972,37.4999999 37.0603577,37.2901744 37.2920065,36.9409161 C37.5236554,36.5916579 37.5648627,36.1495528 37.40175,35.7635 L31.11825,23.190875 C30.906445,22.7673673 30.4735188,22.4999999 30,22.4999999 Z" id="形状备份-3" fill="#9B9CF8" fill-rule="nonzero"></path>
                </g>
            </g>
        </g>
    </g>
</svg>