<?xml version="1.0" encoding="UTF-8"?>
<svg width="40px" height="40px" viewBox="0 0 40 40" version="1.1" xmlns="http://www.w3.org/2000/svg" xmlns:xlink="http://www.w3.org/1999/xlink">
    <g id="页面-1" stroke="none" stroke-width="1" fill="none" fill-rule="evenodd">
        <g id="Telemetry" transform="translate(-1063.000000, -142.000000)">
            <g id="编组-5" transform="translate(40.000000, 142.000000)">
                <g id="in-progress--warning" transform="translate(1023.000000, 0.000000)">
                    <rect id="_Transparent_Rectangle_" x="0" y="0" width="40" height="40"></rect>
                    <path d="M34.225,35 L25.77225,35 L30,26.54475 L34.225,35 Z M30,22.4999999 C29.5264361,22.4999999 29.0934501,22.767327 28.881625,23.190875 L22.631625,35.690875 C22.438181,36.0784524 22.4590711,36.5385323 22.6868428,36.9069843 C22.9146145,37.2754363 23.3168294,37.4997867 23.75,37.4999999 L36.25,37.4999999 C36.6690972,37.4999999 37.0603577,37.2901744 37.2920065,36.9409161 C37.5236554,36.5916579 37.5648627,36.1495528 37.40175,35.7635 L31.11825,23.190875 C30.906445,22.7673673 30.4735188,22.4999999 30,22.4999999 Z" id="形状" fill="#9B9CF8" fill-rule="nonzero"></path>
                    <path d="M23.4325,28.499125 C18.8466392,30.9728389 13.2072876,30.3421251 9.28122647,26.9164246 C5.3551653,23.4907242 3.96617881,17.9888334 5.79573216,13.1100923 C7.6252855,8.23135123 12.2894933,4.99943988 17.5,5 L17.5,17.5 L25.121375,25.1215 L26.646375,22.0715 C27.2785105,20.798661 28.5788407,19.9954603 30,20 L32.274125,20 C33.3198441,13.794812 30.3790216,7.59700872 24.9111508,4.48248219 C19.44328,1.36795565 12.6123135,1.99969907 7.80837435,6.06418611 C3.00443518,10.1286732 1.25014393,16.7606913 3.41613333,22.6688532 C5.58212274,28.577015 11.2073159,32.5036426 17.5,32.5000025 C18.9366387,32.4984504 20.3655196,32.2893746 21.742375,31.87925 L23.4325,28.499125 Z" id="路径" fill="#9B9CF8" fill-rule="nonzero"></path>
                </g>
            </g>
        </g>
    </g>
</svg>