<svg width="20px" height="20px" viewBox="0 0 20 20" version="1.1" xmlns="http://www.w3.org/2000/svg" xmlns:xlink="http://www.w3.org/1999/xlink">
  <g id="页面-1" stroke="none" stroke-width="1" fill="none" fill-rule="evenodd">
      <g id="Telemetry" transform="translate(-1814.000000, -270.000000)">
          <g id="in-progress--warning备份" transform="translate(1814.000000, 270.000000)">
              <rect id="_Transparent_Rectangle_" x="0" y="0" width="20" height="20"></rect>
              <path d="M17.1125,17.5 L12.886125,17.5 L15,13.272375 L17.1125,17.5 Z M15,11.25 C14.7632181,11.25 14.5467251,11.3836635 14.4408125,11.5954375 L11.3158125,17.8454375 C11.2190905,18.0392262 11.2295355,18.2692662 11.3434214,18.4534922 C11.4573073,18.6377182 11.6584147,18.7498934 11.875,18.75 L18.125,18.75 C18.3345486,18.75 18.5301789,18.6450872 18.6460033,18.4704581 C18.7618277,18.2958289 18.7824313,18.0747764 18.700875,17.88175 L15.559125,11.5954375 C15.4532225,11.3836837 15.2367594,11.25 15,11.25 Z" id="形状" fill="#9B9CF8" fill-rule="nonzero"></path>
              <path d="M11.71625,14.2495625 C9.42331959,15.4864195 6.60364382,15.1710625 4.64061324,13.4582123 C2.67758265,11.7453621 1.98308941,8.99441669 2.89786608,6.55504615 C3.81264275,4.11567562 6.14474667,2.49971994 8.75,2.5 L8.75,8.75 L12.5606875,12.56075 L13.3231875,11.03575 C13.6392552,10.3993305 14.2894203,9.99773014 15,10 L16.1370625,10 C16.659922,6.897406 15.1895108,3.79850436 12.4555754,2.24124109 C9.72163999,0.683977826 6.30615676,0.999849536 3.90418717,3.03209306 C1.50221759,5.06433658 0.625071963,8.38034566 1.70806667,11.3344266 C2.79106137,14.2885075 5.60365795,16.2518213 8.75,16.2500013 C9.46831933,16.2492252 10.1827598,16.1446873 10.8711875,15.939625 L11.71625,14.2495625 Z" id="路径" fill="#AFB0CC" fill-rule="nonzero"></path>
          </g>
      </g>
  </g>
</svg>
