<svg width="20px" height="20px" viewBox="0 0 20 20" version="1.1" xmlns="http://www.w3.org/2000/svg" xmlns:xlink="http://www.w3.org/1999/xlink">
    <g id="页面-1" stroke="none" stroke-width="1" fill="none" fill-rule="evenodd">
        <g id="Telemetry" transform="translate(-1755.000000, -270.000000)">
            <g id="in-progress--error备份" transform="translate(1755.000000, 270.000000)">
                <rect id="_Transparent_Rectangle_" x="0" y="0" width="20" height="20"></rect>
                <path d="M15,11.25 C17.0710678,11.25 18.75,12.9289322 18.75,15 C18.7477266,17.0701254 17.0701254,18.7477266 15,18.75 C12.9289322,18.75 11.25,17.0710678 11.25,15 C11.25,12.9289322 12.9289322,11.25 15,11.25 Z M15,12.5 C13.6192881,12.5 12.5,13.6192881 12.5,15 C12.5,16.3807119 13.6192881,17.5 15,17.5 C16.3800836,17.4984844 17.4984844,16.3800836 17.5,15 C17.5,13.6192881 16.3807119,12.5 15,12.5 Z" id="形状" fill="#9B9CF8" fill-rule="nonzero"></path>
                <path d="M8.75,1.24985907 C5.90934166,1.2326324 3.3026626,2.82165481 2.01667345,5.35461224 C0.730684293,7.88756968 0.986117872,10.9296942 2.67648528,13.2127403 C4.36685269,15.4957864 7.20201185,16.627882 10,16.1370625 L10,14.8739375 C7.66485092,15.3501827 5.26210334,14.4569708 3.80509634,12.5710065 C2.34808933,10.6850422 2.09044897,8.13462164 3.14083297,5.99536378 C4.19121697,3.85610592 6.36678147,2.5003985 8.75,2.5 L8.75,8.75 L11.464375,11.4645625 C12.401091,10.5253686 13.6735314,9.99828541 15,10 L16.1370625,10 C16.5208301,7.82201126 15.9179557,5.58604248 14.491318,3.89618532 C13.0646802,2.20632817 10.9615024,1.23696915 8.75,1.24985907 Z" id="路径" fill="#AFB0CC" fill-rule="nonzero"></path>
            </g>
        </g>
    </g>
</svg>
