<?xml version="1.0" encoding="UTF-8"?>
<svg width="40px" height="40px" viewBox="0 0 40 40" version="1.1" xmlns="http://www.w3.org/2000/svg" xmlns:xlink="http://www.w3.org/1999/xlink">
    <g id="页面-1" stroke="none" stroke-width="1" fill="none" fill-rule="evenodd">
        <g id="Telemetry" transform="translate(-312.000000, -142.000000)">
            <g id="编组-5" transform="translate(40.000000, 142.000000)">
                <g id="ibm-cloud--direct-link-1--dedicated-hosting备份" transform="translate(272.000000, 0.000000)">
                    <rect id="_x3C_Transparent_Rectangle_x3E__589_" x="0" y="0" width="40" height="40"></rect>
                    <path d="M15.2666667,3 L15.266,12.6 L22.733,12.6 L22.7333333,3 L25.4,3 L25.399,12.6 L35,12.6 L35,15.2666667 L25.399,15.266 L25.3992425,21.1188697 C24.3998766,21.6376329 23.4991568,22.3201276 22.7326154,23.1308214 L22.733,15.266 L15.266,15.266 L15.266,23.266 L22.6072095,23.2659081 C21.8917236,24.0509277 21.2995863,24.9503322 20.861443,25.9334761 L15.266,25.933 L15.2666667,35 L12.6,35 L12.6,25.933 L3,25.9333333 L3,23.2666667 L12.6,23.266 L12.6,15.266 L3,15.2666667 L3,12.6 L12.6,12.6 L12.6,3 L15.2666667,3 Z" id="形状结合" fill="#9B9CF8"></path>
                    <path d="M30,22.5 C34.1421356,22.5 37.5,25.8578644 37.5,30 C37.4954532,34.1402508 34.1402508,37.4954532 30,37.5 C25.8578644,37.5 22.5,34.1421356 22.5,30 C22.5,25.8578644 25.8578644,22.5 30,22.5 Z M30,25 C27.2385763,25 25,27.2385763 25,30 C25,32.7614237 27.2385763,35 30,35 C32.7601672,34.9969688 34.9969688,32.7601672 35,30 C35,27.2385763 32.7614237,25 30,25 Z" id="形状" fill="#9B9CF8" fill-rule="nonzero"></path>
                </g>
            </g>
        </g>
    </g>
</svg>