<?xml version="1.0" encoding="UTF-8"?>
<svg width="40px" height="40px" viewBox="0 0 40 40" version="1.1" xmlns="http://www.w3.org/2000/svg" xmlns:xlink="http://www.w3.org/1999/xlink">
    <g id="页面-1" stroke="none" stroke-width="1" fill="none" fill-rule="evenodd">
        <g id="Telemetry" transform="translate(-868.000000, -142.000000)">
            <g id="编组-5" transform="translate(40.000000, 142.000000)">
                <g id="in-progress--error" transform="translate(828.000000, 0.000000)">
                    <rect id="_Transparent_Rectangle_" x="0" y="0" width="40" height="40"></rect>
                    <path d="M30,22.5 C34.1421356,22.5 37.5,25.8578644 37.5,30 C37.4954532,34.1402508 34.1402508,37.4954532 30,37.5 C25.8578644,37.5 22.5,34.1421356 22.5,30 C22.5,25.8578644 25.8578644,22.5 30,22.5 Z M30,25 C27.2385763,25 25,27.2385763 25,30 C25,32.7614237 27.2385763,35 30,35 C32.7601672,34.9969688 34.9969688,32.7601672 35,30 C35,27.2385763 32.7614237,25 30,25 Z" id="形状" fill="#9B9CF8" fill-rule="nonzero"></path>
                    <path d="M17.5,2.49971813 C11.8186833,2.4652648 6.60532519,5.64330962 4.03334689,10.7092245 C1.46136859,15.7751394 1.97223574,21.8593884 5.35297057,26.4254806 C8.73370539,30.9915728 14.4040237,33.255764 20,32.274125 L20,29.747875 C15.3297018,30.7003654 10.5242067,28.9139415 7.61019267,25.142013 C4.69617866,21.3700844 4.18089795,16.2692433 6.28166594,11.9907276 C8.38243393,7.71221184 12.7335629,5.000797 17.5,5 L17.5,17.5 L22.92875,22.929125 C24.8021819,21.0507372 27.3470628,19.9965708 30,20 L32.274125,20 C33.0416602,15.6440225 31.8359115,11.172085 28.9826359,7.79237065 C26.1293604,4.41265633 21.9230047,2.47393831 17.5,2.49971813 Z" id="路径" fill="#9B9CF8" fill-rule="nonzero"></path>
                </g>
            </g>
        </g>
    </g>
</svg>