<?xml version="1.0" encoding="UTF-8"?>
<svg width="20px" height="20px" viewBox="0 0 20 20" version="1.1" xmlns="http://www.w3.org/2000/svg" xmlns:xlink="http://www.w3.org/1999/xlink">
    <g id="页面-1" stroke="none" stroke-width="1" fill="none" fill-rule="evenodd">
        <g id="Telemetry" transform="translate(-1108.000000, -270.000000)">
            <g id="blockchain备份" transform="translate(1108.000000, 270.000000)">
                <rect id="_Transparent_Rectangle_" x="0" y="0" width="20" height="20"></rect>
                <path d="M18.1818182,18.1818182 L1.81818182,18.1818182 L1.81818182,1.81818182 L18.1818182,1.81818182 L18.1818182,18.1818182 Z M16.8181818,16.8181818 L16.8181818,3.18118182 L3.18118182,3.18118182 L3.18118182,16.8181818 L16.8181818,16.8181818 Z" id="形状" fill="#AFB0CC" fill-rule="nonzero"></path>
                <g id="2" transform="translate(7.272727, 6.363636)" fill="#9B9CF8" fill-rule="nonzero">
                    <path d="M0,7.84015984 L0,6.94105894 C0.215784216,6.49350649 0.493506494,6.09390609 0.833166833,5.74225774 C1.17282717,5.39060939 1.54245754,5.03496503 1.94205794,4.67532468 C2.30969031,4.33966034 2.6013986,4.07192807 2.81718282,3.87212787 C3.03296703,3.67232767 3.18681319,3.48051948 3.27872128,3.2967033 C3.37062937,3.11288711 3.41658342,2.89310689 3.41658342,2.63736264 C3.41658342,1.98201798 2.99300699,1.65434565 2.14585415,1.65434565 C1.81818182,1.65434565 1.49450549,1.69230769 1.17482517,1.76823177 C0.855144855,1.84415584 0.551448551,1.93806194 0.263736264,2.04995005 L0.263736264,0.383616384 C0.575424575,0.271728272 0.941058941,0.17982018 1.36063936,0.107892108 C1.78021978,0.035964036 2.1978022,0 2.61338661,0 C3.51648352,0 4.2037962,0.227772228 4.67532468,0.683316683 C5.14685315,1.13886114 5.38261738,1.77822178 5.38261738,2.6013986 C5.38261738,3.06493506 5.27472527,3.46653347 5.05894106,3.80619381 C4.84315684,4.14585415 4.51948052,4.5034965 4.08791209,4.87912088 C3.76823177,5.15084915 3.48251748,5.4005994 3.23076923,5.62837163 C2.97902098,5.85614386 2.76523477,6.0979021 2.58941059,6.35364635 L5.45454545,6.35364635 L5.45454545,7.84015984 L0,7.84015984 Z" id="路径"></path>
                </g>
            </g>
        </g>
    </g>
</svg>