<?xml version="1.0" encoding="UTF-8"?>
<svg width="20px" height="20px" viewBox="0 0 20 20" version="1.1" xmlns="http://www.w3.org/2000/svg" xmlns:xlink="http://www.w3.org/1999/xlink">
    <g id="页面-1" stroke="none" stroke-width="1" fill="none" fill-rule="evenodd">
        <g id="Telemetry" transform="translate(-1192.000000, -270.000000)">
            <g id="double-integer" transform="translate(1192.000000, 270.000000)">
                <rect id="_Transparent_Rectangle_" x="0" y="0" width="20" height="20"></rect>
                <path d="M10.6818182,4.54545455 L10.6818182,3.18181818 L7.95454545,3.18181818 L7.95454545,0.454545455 L6.59090909,0.454545455 L6.59090909,3.18181818 L4.54545455,3.18181818 L4.54545455,0.454545455 L3.18181818,0.454545455 L3.18181818,3.18181818 L0.454545455,3.18181818 L0.454545455,4.54545455 L3.18181818,4.54545455 L3.18181818,6.59090909 L0.454545455,6.59090909 L0.454545455,7.95454545 L3.18181818,7.95454545 L3.18181818,10.6818182 L4.54545455,10.6818182 L4.54545455,7.95454545 L6.59090909,7.95454545 L6.59090909,10.6818182 L7.95454545,10.6818182 L7.95454545,7.95454545 L10.6818182,7.95454545 L10.6818182,6.59090909 L7.95454545,6.59090909 L7.95454545,4.54545455 L10.6818182,4.54545455 Z M6.59090909,6.59090909 L4.54545455,6.59090909 L4.54545455,4.54545455 L6.59090909,4.54545455 L6.59090909,6.59090909 Z" id="形状" fill="#9B9CF8" fill-rule="nonzero"></path>
                <path d="M19.5454545,13.4090909 L19.5454545,12.0454545 L16.8181818,12.0454545 L16.8181818,9.31818182 L15.4545455,9.31818182 L15.4545455,12.0454545 L13.4090909,12.0454545 L13.4090909,9.31818182 L12.0454545,9.31818182 L12.0454545,12.0454545 L9.31818182,12.0454545 L9.31818182,13.4090909 L12.0454545,13.4090909 L12.0454545,15.4545455 L9.31818182,15.4545455 L9.31818182,16.8181818 L12.0454545,16.8181818 L12.0454545,19.5454545 L13.4090909,19.5454545 L13.4090909,16.8181818 L15.4545455,16.8181818 L15.4545455,19.5454545 L16.8181818,19.5454545 L16.8181818,16.8181818 L19.5454545,16.8181818 L19.5454545,15.4545455 L16.8181818,15.4545455 L16.8181818,13.4090909 L19.5454545,13.4090909 Z M15.4545455,15.4545455 L13.4090909,15.4545455 L13.4090909,13.4090909 L15.4545455,13.4090909 L15.4545455,15.4545455 Z" id="形状" fill="#9B9CF8" fill-rule="nonzero"></path>
            </g>
        </g>
    </g>
</svg>