<?xml version="1.0" encoding="UTF-8"?>
<svg width="40px" height="40px" viewBox="0 0 40 40" version="1.1" xmlns="http://www.w3.org/2000/svg" xmlns:xlink="http://www.w3.org/1999/xlink">
    <g id="页面-1" stroke="none" stroke-width="1" fill="none" fill-rule="evenodd">
        <g id="Telemetry" transform="translate(-40.000000, -142.000000)">
            <g id="编组-3" transform="translate(40.000000, 142.000000)">
                <rect id="矩形" x="0" y="0" width="40" height="40"></rect>
                <path d="M28.4944592,2.45 C31.7206975,2.45 32.9074748,2.7435022 34.0914642,3.37670665 C35.1829525,3.96044101 36.039559,4.81704746 36.6232933,5.90853582 C37.2564978,7.0925252 37.55,8.27930251 37.55,11.5055408 L37.55,28.4944592 C37.55,31.7206975 37.2564978,32.9074748 36.6232933,34.0914642 C36.039559,35.1829525 35.1829525,36.039559 34.0914642,36.6232933 C32.9074748,37.2564978 31.7206975,37.55 28.4944592,37.55 L11.5055408,37.55 C8.27930251,37.55 7.0925252,37.2564978 5.90853582,36.6232933 C4.81704746,36.039559 3.96044101,35.1829525 3.37670665,34.0914642 C2.7435022,32.9074748 2.45,31.7206975 2.45,28.4944592 L2.45,11.5055408 C2.45,8.27930251 2.7435022,7.0925252 3.37670665,5.90853582 C3.96044101,4.81704746 4.81704746,3.96044101 5.90853582,3.37670665 C7.0925252,2.7435022 8.27930251,2.45 11.5055408,2.45 Z" id="矩形" stroke="#9B9CF8" stroke-width="2.4"></path>
                <g id="double-integer备份-2" transform="translate(7.500000, 7.500000)">
                    <rect id="_Transparent_Rectangle_" x="0" y="0" width="25" height="25"></rect>
                    <path d="M13.3522727,5.68181818 L13.3522727,3.97727273 L9.94318182,3.97727273 L9.94318182,0.568181818 L8.23863636,0.568181818 L8.23863636,3.97727273 L5.68181818,3.97727273 L5.68181818,0.568181818 L3.97727273,0.568181818 L3.97727273,3.97727273 L0.568181818,3.97727273 L0.568181818,5.68181818 L3.97727273,5.68181818 L3.97727273,8.23863636 L0.568181818,8.23863636 L0.568181818,9.94318182 L3.97727273,9.94318182 L3.97727273,13.3522727 L5.68181818,13.3522727 L5.68181818,9.94318182 L8.23863636,9.94318182 L8.23863636,13.3522727 L9.94318182,13.3522727 L9.94318182,9.94318182 L13.3522727,9.94318182 L13.3522727,8.23863636 L9.94318182,8.23863636 L9.94318182,5.68181818 L13.3522727,5.68181818 Z M8.23863636,8.23863636 L5.68181818,8.23863636 L5.68181818,5.68181818 L8.23863636,5.68181818 L8.23863636,8.23863636 Z" id="形状" fill="#9B9CF8" fill-rule="nonzero"></path>
                    <path d="M24.4318182,16.7613636 L24.4318182,15.0568182 L21.0227273,15.0568182 L21.0227273,11.6477273 L19.3181818,11.6477273 L19.3181818,15.0568182 L16.7613636,15.0568182 L16.7613636,11.6477273 L15.0568182,11.6477273 L15.0568182,15.0568182 L11.6477273,15.0568182 L11.6477273,16.7613636 L15.0568182,16.7613636 L15.0568182,19.3181818 L11.6477273,19.3181818 L11.6477273,21.0227273 L15.0568182,21.0227273 L15.0568182,24.4318182 L16.7613636,24.4318182 L16.7613636,21.0227273 L19.3181818,21.0227273 L19.3181818,24.4318182 L21.0227273,24.4318182 L21.0227273,21.0227273 L24.4318182,21.0227273 L24.4318182,19.3181818 L21.0227273,19.3181818 L21.0227273,16.7613636 L24.4318182,16.7613636 Z M19.3181818,19.3181818 L16.7613636,19.3181818 L16.7613636,16.7613636 L19.3181818,16.7613636 L19.3181818,19.3181818 Z" id="形状" fill="#9B9CF8" fill-rule="nonzero"></path>
                </g>
            </g>
        </g>
    </g>
</svg>