<svg width="20px" height="20px" viewBox="0 0 20 20" version="1.1" xmlns="http://www.w3.org/2000/svg" xmlns:xlink="http://www.w3.org/1999/xlink">
    <g id="页面-1" stroke="none" stroke-width="1" fill="none" fill-rule="evenodd">
        <g id="Telemetry" transform="translate(-1762.000000, -82.000000)">
            <g id="编组-8" transform="translate(1752.000000, 72.000000)">
                <g id="data-table" transform="translate(10.000000, 10.000000)">
                    <rect id="_Transparent_Rectangle_" x="0" y="0" width="20" height="20"></rect>
                    <rect id="矩形" fill="#FFFFFF" fill-rule="nonzero" x="5" y="11.25" width="2.5" height="1.25"></rect>
                    <rect id="矩形" fill="#FFFFFF" fill-rule="nonzero" x="8.75" y="11.25" width="2.5" height="1.25"></rect>
                    <rect id="矩形" fill="#FFFFFF" fill-rule="nonzero" x="5" y="8.75" width="2.5" height="1.25"></rect>
                    <rect id="矩形" fill="#FFFFFF" fill-rule="nonzero" x="8.75" y="13.75" width="2.5" height="1.25"></rect>
                    <rect id="矩形" fill="#FFFFFF" fill-rule="nonzero" x="12.5" y="8.75" width="2.5" height="1.25"></rect>
                    <rect id="矩形" fill="#FFFFFF" fill-rule="nonzero" x="12.5" y="13.75" width="2.5" height="1.25"></rect>
                    <path d="M16.875,1.875 L3.125,1.875 C2.43500097,1.87586089 1.87586089,2.43500097 1.875,3.125 L1.875,16.875 C1.87586089,17.564999 2.43500097,18.1241391 3.125,18.125 L16.875,18.125 C17.564999,18.1241391 18.1241391,17.564999 18.125,16.875 L18.125,3.125 C18.1241391,2.43500097 17.564999,1.87586089 16.875,1.875 L16.875,1.875 Z M16.875,3.125 L16.875,5.625 L3.125,5.625 L3.125,3.125 L16.875,3.125 Z M3.125,16.875 L3.125,6.875 L16.875,6.875 L16.875,16.875 L3.125,16.875 Z" id="形状" fill="#FFFFFF" fill-rule="nonzero"></path>
                </g>
            </g>
        </g>
    </g>
</svg>
