<svg width="20px" height="20px" viewBox="0 0 20 20" version="1.1" xmlns="http://www.w3.org/2000/svg" xmlns:xlink="http://www.w3.org/1999/xlink">
    <g id="页面-1" stroke="none" stroke-width="1" fill="none" fill-rule="evenodd">
        <g id="Telemetry" transform="translate(-1798.000000, -82.000000)">
            <g id="编组-8" transform="translate(1752.000000, 72.000000)">
                <g id="image-availability--local-(1)" transform="translate(46.000000, 10.000000)">
                    <rect id="_x3C_Transparent_Rectangle_x3E__363_" x="0" y="0" width="20" height="20"></rect>
                    <path d="M10,11.25 C8.25,11.25 6.875,9.875 6.875,8.125 C6.875,6.375 8.25,5 10,5 C11.75,5 13.125,6.375 13.125,8.125 C13.125,9.875 11.75,11.25 10,11.25 Z" id="路径" fill="#BDBDCE" fill-rule="nonzero"></path>
                    <path d="M10,18.75 L4.75,12.5625 C4.75,12.5 4.5625,12.25 4.5625,12.25 C3.625,11.0625 3.125,9.625 3.125,8.125 C3.125,4.3125 6.1875,1.25 10,1.25 C13.8125,1.25 16.875,4.3125 16.875,8.125 C16.875,9.625 16.375,11.0625 15.5,12.25 L15.5,12.25 C15.5,12.25 15.3125,12.5 15.3125,12.5 L10,18.75 Z M5.5,11.5 C5.5,11.5 5.625,11.6875 5.6875,11.75 L10,16.8125 L14.3125,11.75 C14.3125,11.6875 14.5,11.5 14.5,11.5 C15.25,10.5 15.625,9.375 15.625,8.125 C15.625,5 13.125,2.5 10,2.5 C6.875,2.5 4.375,5 4.375,8.125 C4.375,9.375 4.75,10.5 5.5,11.5 L5.5,11.5 Z" id="形状" fill="#BDBDCE" fill-rule="nonzero"></path>
                </g>
            </g>
        </g>
    </g>
</svg>
