<svg width="20px" height="20px" viewBox="0 0 20 20" version="1.1" xmlns="http://www.w3.org/2000/svg" xmlns:xlink="http://www.w3.org/1999/xlink">
    <g id="页面-1" stroke="none" stroke-width="1" fill="none" fill-rule="evenodd">
        <g id="Telemetry" transform="translate(-506.000000, -270.000000)">
            <g id="image-availability--local" transform="translate(506.000000, 270.000000)">
                <rect id="_x3C_Transparent_Rectangle_x3E__363_" x="0" y="0" width="20" height="20"></rect>
                <g id="编组-2" transform="translate(2.190909, 0.000000)" fill-rule="nonzero">
                    <path d="M7.8125,11.3636364 C5.82386364,11.3636364 4.26136364,9.80113636 4.26136364,7.8125 C4.26136364,5.82386364 5.82386364,4.26136364 7.8125,4.26136364 C9.80113636,4.26136364 11.3636364,5.82386364 11.3636364,7.8125 C11.3636364,9.80113636 9.80113636,11.3636364 7.8125,11.3636364 Z" id="路径" fill="#9B9CF8"></path>
                    <path d="M7.8125,19.8863636 L1.84659091,12.8551136 C1.84659091,12.7840909 1.63352273,12.5 1.63352273,12.5 C0.568181818,11.1505682 0,9.51704545 0,7.8125 C0,3.48011364 3.48011364,0 7.8125,0 C12.1448864,0 15.625,3.48011364 15.625,7.8125 C15.625,9.51704545 15.0568182,11.1505682 14.0625,12.5 L14.0625,12.5 C14.0625,12.5 13.8494318,12.7840909 13.8494318,12.7840909 L7.8125,19.8863636 Z M2.69886364,11.6477273 C2.69886364,11.6477273 2.84090909,11.8607955 2.91193182,11.9318182 L7.8125,17.6846591 L12.7130682,11.9318182 C12.7130682,11.8607955 12.9261364,11.6477273 12.9261364,11.6477273 C13.7784091,10.5113636 14.2045455,9.23295455 14.2045455,7.8125 C14.2045455,4.26136364 11.3636364,1.42045455 7.8125,1.42045455 C4.26136364,1.42045455 1.42045455,4.26136364 1.42045455,7.8125 C1.42045455,9.23295455 1.84659091,10.5113636 2.69886364,11.6477273 L2.69886364,11.6477273 Z" id="形状" fill="#AFB0CC"></path>
                </g>
            </g>
        </g>
    </g>
</svg>
