<svg width="20px" height="20px" viewBox="0 0 20 20" version="1.1" xmlns="http://www.w3.org/2000/svg" xmlns:xlink="http://www.w3.org/1999/xlink">
    <g id="页面-1" stroke="none" stroke-width="1" fill="none" fill-rule="evenodd">
        <g id="Telemetry" transform="translate(-40.000000, -270.000000)">
            <g id="bare-metal-server" transform="translate(40.000000, 270.000000)">
                <rect id="_Transparent_Rectangle_" x="0" y="0" width="20" height="20"></rect>
                <circle id="椭圆形" fill="#9B9CF8" fill-rule="nonzero" cx="5.68181818" cy="3.18181818" r="1.13636364"></circle>
                <path d="M16.8181818,5.90909091 L3.18181818,5.90909091 C2.42902975,5.90830172 1.818971,5.29824298 1.81818182,4.54545455 L1.81818182,1.81818182 C1.818971,1.06539338 2.42902975,0.45533464 3.18181818,0.454545455 L16.8181818,0.454545455 C17.5709703,0.45533464 18.181029,1.06539338 18.1818182,1.81818182 L18.1818182,4.54545455 C18.181029,5.29824298 17.5709703,5.90830172 16.8181818,5.90909091 Z M3.18181818,1.81818182 L3.18181818,4.54545455 L16.8181818,4.54545455 L16.8181818,1.81818182 L3.18181818,1.81818182 Z" id="形状" fill="#AFB0CC" fill-rule="nonzero"></path>
                <circle id="椭圆形" fill="#9B9CF8" fill-rule="nonzero" cx="5.68181818" cy="10" r="1.13636364"></circle>
                <path d="M16.8181818,12.7272727 L3.18181818,12.7272727 C2.42902975,12.7264835 1.818971,12.1164248 1.81818182,11.3636364 L1.81818182,8.63636364 C1.818971,7.8835752 2.42902975,7.27351646 3.18181818,7.27272727 L16.8181818,7.27272727 C17.5709703,7.27351646 18.181029,7.8835752 18.1818182,8.63636364 L18.1818182,11.3636364 C18.181029,12.1164248 17.5709703,12.7264835 16.8181818,12.7272727 Z M3.18181818,8.63636364 L3.18181818,11.3636364 L16.8181818,11.3636364 L16.8181818,8.63636364 L3.18181818,8.63636364 Z" id="形状" fill="#AFB0CC" fill-rule="nonzero"></path>
                <circle id="椭圆形" fill="#9B9CF8" fill-rule="nonzero" cx="5.68181818" cy="16.8181818" r="1.13636364"></circle>
                <path d="M16.8181818,19.5454545 L3.18181818,19.5454545 C2.42902975,19.5446654 1.818971,18.9346066 1.81818182,18.1818182 L1.81818182,15.4545455 C1.818971,14.701757 2.42902975,14.0916983 3.18181818,14.0909091 L16.8181818,14.0909091 C17.5709703,14.0916983 18.181029,14.701757 18.1818182,15.4545455 L18.1818182,18.1818182 C18.181029,18.9346066 17.5709703,19.5446654 16.8181818,19.5454545 Z M3.18181818,15.4545455 L3.18181818,18.1818182 L16.8181818,18.1818182 L16.8181818,15.4545455 L3.18181818,15.4545455 Z" id="形状" fill="#AFB0CC" fill-rule="nonzero"></path>
            </g>
        </g>
    </g>
</svg>
