<svg width="20px" height="20px" viewBox="0 0 20 20" version="1.1" xmlns="http://www.w3.org/2000/svg" xmlns:xlink="http://www.w3.org/1999/xlink">
    <g id="页面-1" stroke="none" stroke-width="1" fill="none" fill-rule="evenodd">
        <g id="Telemetry" transform="translate(-1870.000000, -82.000000)">
            <g id="编组-8" transform="translate(1752.000000, 72.000000)">
                <g id="settings--adjust" transform="translate(118.000000, 10.000000)">
                    <rect id="_Transparent_Rectangle_" x="0" y="0" width="20" height="20"></rect>
                    <path d="M18.75,5 L16.1875,5 C15.875,3.5625 14.625,2.5 13.125,2.5 C11.625,2.5 10.375,3.5625 10.0625,5 L1.25,5 L1.25,6.25 L10.0625,6.25 C10.375,7.6875 11.625,8.75 13.125,8.75 C14.625,8.75 15.875,7.6875 16.1875,6.25 L18.75,6.25 L18.75,5 Z M13.125,7.5 C12.0625,7.5 11.25,6.6875 11.25,5.625 C11.25,4.5625 12.0625,3.75 13.125,3.75 C14.1875,3.75 15,4.5625 15,5.625 C15,6.6875 14.1875,7.5 13.125,7.5 Z" id="形状" fill="#BDBDCE" fill-rule="nonzero"></path>
                    <path d="M1.25,15 L3.8125,15 C4.125,16.4375 5.375,17.5 6.875,17.5 C8.375,17.5 9.625,16.4375 9.9375,15 L18.75,15 L18.75,13.75 L9.9375,13.75 C9.625,12.3125 8.375,11.25 6.875,11.25 C5.375,11.25 4.125,12.3125 3.8125,13.75 L1.25,13.75 L1.25,15 Z M6.875,12.5 C7.9375,12.5 8.75,13.3125 8.75,14.375 C8.75,15.4375 7.9375,16.25 6.875,16.25 C5.8125,16.25 5,15.4375 5,14.375 C5,13.3125 5.8125,12.5 6.875,12.5 Z" id="形状" fill="#BDBDCE" fill-rule="nonzero"></path>
                </g>
            </g>
        </g>
    </g>
</svg>
