<svg width="20px" height="20px" viewBox="0 0 20 20" version="1.1" xmlns="http://www.w3.org/2000/svg" xmlns:xlink="http://www.w3.org/1999/xlink">
    <g id="页面-1" stroke="none" stroke-width="1" fill="none" fill-rule="evenodd">
        <g id="Telemetry" transform="translate(-1452.000000, -270.000000)">
            <g id="ibm-cloud--direct-link-1--dedicated-hosting备份-2" transform="translate(1452.000000, 270.000000)">
                <rect id="_x3C_Transparent_Rectangle_x3E__589_" x="0" y="0" width="20" height="20"></rect>
                <path d="M7.63333333,1.5 L7.633,6.3 L11.366,6.3 L11.3666667,1.5 L12.7,1.5 L12.699,6.3 L17.5,6.3 L17.5,7.63333333 L12.699,7.633 L12.6991952,10.559656 C12.1995772,10.819065 11.74928,11.1603225 11.3660659,11.5656664 L11.366,7.633 L7.633,7.633 L7.633,11.633 L11.3036951,11.632855 C10.9459097,12.0253903 10.6498082,12.4751298 10.4307178,12.9667463 L7.633,12.966 L7.63333333,17.5 L6.3,17.5 L6.3,12.966 L1.5,12.9666667 L1.5,11.6333333 L6.3,11.633 L6.3,7.633 L1.5,7.63333333 L1.5,6.3 L6.3,6.3 L6.3,1.5 L7.63333333,1.5 Z" id="形状结合" fill="#AFB0CC"></path>
                <path d="M15,11.25 C17.0710678,11.25 18.75,12.9289322 18.75,15 C18.7477266,17.0701254 17.0701254,18.7477266 15,18.75 C12.9289322,18.75 11.25,17.0710678 11.25,15 C11.25,12.9289322 12.9289322,11.25 15,11.25 Z M15,12.5 C13.6192881,12.5 12.5,13.6192881 12.5,15 C12.5,16.3807119 13.6192881,17.5 15,17.5 C16.3800836,17.4984844 17.4984844,16.3800836 17.5,15 C17.5,13.6192881 16.3807119,12.5 15,12.5 Z" id="形状" fill="#9B9CF8" fill-rule="nonzero"></path>
            </g>
        </g>
    </g>
</svg>
