<svg width="20px" height="20px" viewBox="0 0 20 20" version="1.1" xmlns="http://www.w3.org/2000/svg" xmlns:xlink="http://www.w3.org/1999/xlink">
    <g id="页面-1" stroke="none" stroke-width="1" fill="none" fill-rule="evenodd">
        <g id="Telemetry" transform="translate(-627.000000, -270.000000)">
            <g id="terminal" transform="translate(627.000000, 270.000000)">
                <rect id="_Transparent_Rectangle_" x="0" y="0" width="20" height="20"></rect>
                <path d="M16.8181818,1.825 L3.18181818,1.825 C2.42870261,1.825 1.81818182,2.4355208 1.81818182,3.18863636 L1.81818182,16.825 C1.81818182,17.5781156 2.42870261,18.1886364 3.18181818,18.1886364 L16.8181818,18.1886364 C17.5712974,18.1886364 18.1818182,17.5781156 18.1818182,16.825 L18.1818182,3.18863636 C18.1818182,2.4355208 17.5712974,1.825 16.8181818,1.825 Z M16.8181818,3.18863636 L16.8181818,5.91590909 L3.18181818,5.91590909 L3.18181818,3.18863636 L16.8181818,3.18863636 Z M3.18181818,16.825 L3.18181818,7.27954545 L16.8181818,7.27954545 L16.8181818,16.825 L3.18181818,16.825 Z" id="形状" fill="#AFB0CC" fill-rule="nonzero"></path>
                <polygon id="路径" fill="#9B9CF8" fill-rule="nonzero" points="5.06363636 10.1227273 6.98636364 12.0522727 5.06363636 13.9818182 6.025 14.9431818 8.91590909 12.0522727 6.025 9.16136364"></polygon>
                <rect id="矩形" fill="#9B9CF8" fill-rule="nonzero" x="10" y="13.4090909" width="4.09090909" height="1.36363636"></rect>
            </g>
        </g>
    </g>
</svg>
