<svg width="20px" height="20px" viewBox="0 0 20 20" version="1.1" xmlns="http://www.w3.org/2000/svg" xmlns:xlink="http://www.w3.org/1999/xlink">
    <g id="页面-1" stroke="none" stroke-width="1" fill="none" fill-rule="evenodd">
        <g id="Telemetry" transform="translate(-1068.000000, -270.000000)">
            <g id="block-storage" transform="translate(1068.000000, 270.000000)">
                <rect id="_Transparent_Rectangle_" x="0" y="0" width="20" height="20"></rect>
                <path d="M5.22727273,7.27272727 L5.22727273,5.90909091 L1.81818182,5.90909091 C1.06506625,5.90909091 0.454545455,6.5196117 0.454545455,7.27272727 L0.454545455,18.1818182 C0.454545455,18.9349337 1.06506625,19.5454545 1.81818182,19.5454545 L12.7272727,19.5454545 C13.4803883,19.5454545 14.0909091,18.9349337 14.0909091,18.1818182 L14.0909091,12.0454545 L12.7272727,12.0454545 L12.7272727,18.1818182 L1.81818182,18.1818182 L1.81818182,7.27272727" id="路径" fill="#9B9CF8" fill-rule="nonzero"></path>
                <path d="M7.27272727,1.81818182 L7.27272727,7.27272727 C7.27272727,8.02584284 7.88324807,8.63636364 8.63636364,8.63636364 L14.0909091,8.63636364 C14.8440247,8.63636364 15.4545455,8.02584284 15.4545455,7.27272727 L15.4545455,1.81818182 C15.4545455,1.06506625 14.8440247,0.454545455 14.0909091,0.454545455 L8.63636364,0.454545455 C7.88324807,0.454545455 7.27272727,1.06506625 7.27272727,1.81818182 Z" id="形状" fill="#9B9CF8" fill-rule="nonzero"></path>
                <path d="M4.54545455,11.3636364 L4.54545455,14.0909091 C4.54545455,14.8440247 5.15597534,15.4545455 5.90909091,15.4545455 L8.63636364,15.4545455 C9.3894792,15.4545455 10,14.8440247 10,14.0909091 L10,11.3636364 C10,10.6105208 9.3894792,10 8.63636364,10 L5.90909091,10 C5.15597534,10 4.54545455,10.6105208 4.54545455,11.3636364 Z" id="形状" fill="#9B9CF8" fill-rule="nonzero"></path>
                <path d="M15.4545455,10 L15.4545455,12.7272727 C15.4545455,13.1038305 15.7598059,13.4090909 16.1363636,13.4090909 L18.8636364,13.4090909 C19.2401941,13.4090909 19.5454545,13.1038305 19.5454545,12.7272727 L19.5454545,10 C19.5454545,9.62344222 19.2401941,9.31818182 18.8636364,9.31818182 L16.1363636,9.31818182 C15.7598059,9.31818182 15.4545455,9.62344222 15.4545455,10 Z" id="形状" fill="#9B9CF8" fill-rule="nonzero"></path>
            </g>
        </g>
    </g>
</svg>
