<?xml version="1.0" encoding="UTF-8"?>
<svg width="32px" height="32px" viewBox="0 0 32 32" version="1.1" xmlns="http://www.w3.org/2000/svg" xmlns:xlink="http://www.w3.org/1999/xlink">
    <g id="页面-1" stroke="none" stroke-width="1" fill="none" fill-rule="evenodd">
        <g id="Telemetry" transform="translate(-1868.000000, -20.000000)">
            <g id="Github" transform="translate(1868.000000, 20.000000)">
                <rect id="矩形备份-13" x="0" y="0" width="32" height="32"></rect>
                <path d="M11.696371,23.4120968 C11.696371,23.5169355 11.5758065,23.6008065 11.4237903,23.6008065 C11.2508065,23.6165323 11.1302419,23.5326613 11.1302419,23.4120968 C11.1302419,23.3072581 11.2508065,23.2233871 11.4028226,23.2233871 C11.5600806,23.2076613 11.696371,23.2915323 11.696371,23.4120968 Z M10.066129,23.1762097 C10.0294355,23.2810484 10.1342742,23.4016129 10.2915323,23.4330645 C10.4278226,23.4854839 10.5850806,23.4330645 10.6165323,23.3282258 C10.6479839,23.2233871 10.5483871,23.1028226 10.391129,23.0556452 C10.2548387,23.0189516 10.1028226,23.071371 10.066129,23.1762097 Z M12.3830645,23.0870968 C12.2310484,23.1237903 12.1262097,23.2233871 12.1419355,23.3439516 C12.1576613,23.4487903 12.2939516,23.5169355 12.4512097,23.4802419 C12.6032258,23.4435484 12.7080645,23.3439516 12.6923387,23.2391129 C12.6766129,23.1395161 12.5350806,23.071371 12.3830645,23.0870968 Z M15.8322581,3 C8.56169355,3 3,8.51975806 3,15.7903226 C3,21.603629 6.65887097,26.5782258 11.8850806,28.3290323 C12.5560484,28.4495968 12.7919355,28.0354839 12.7919355,27.6947581 C12.7919355,27.3697581 12.7762097,25.5770161 12.7762097,24.4762097 C12.7762097,24.4762097 9.10685484,25.2625 8.33629032,22.9141129 C8.33629032,22.9141129 7.73870968,21.3887097 6.87903226,20.9955645 C6.87903226,20.9955645 5.67862903,20.1725806 6.96290323,20.1883065 C6.96290323,20.1883065 8.26814516,20.2931452 8.98629032,21.5407258 C10.1342742,23.5641129 12.0580645,22.9822581 12.8076613,22.6362903 C12.9282258,21.7975806 13.2689516,21.2157258 13.646371,20.8697581 C10.716129,20.5447581 7.75967742,20.1201613 7.75967742,15.0774194 C7.75967742,13.6358871 8.15806452,12.9125 8.99677419,11.9899194 C8.86048387,11.6491935 8.41491935,10.2443548 9.13306452,8.43064516 C10.228629,8.08991935 12.75,9.84596774 12.75,9.84596774 C13.7983871,9.55241935 14.9254032,9.40040323 16.0419355,9.40040323 C17.1584677,9.40040323 18.2854839,9.55241935 19.333871,9.84596774 C19.333871,9.84596774 21.8552419,8.08467742 22.9508065,8.43064516 C23.6689516,10.2495968 23.2233871,11.6491935 23.0870968,11.9899194 C23.9258065,12.9177419 24.4395161,13.641129 24.4395161,15.0774194 C24.4395161,20.1358871 21.3520161,20.5395161 18.4217742,20.8697581 C18.9040323,21.283871 19.3129032,22.0701613 19.3129032,23.3020161 C19.3129032,25.0685484 19.2971774,27.2544355 19.2971774,27.6842742 C19.2971774,28.025 19.5383065,28.4391129 20.2040323,28.3185484 C25.4459677,26.5782258 29,21.603629 29,15.7903226 C29,8.51975806 23.1028226,3 15.8322581,3 Z M8.09516129,21.0794355 C8.02701613,21.1318548 8.04274194,21.2524194 8.13185484,21.3520161 C8.21572581,21.4358871 8.33629032,21.4725806 8.40443548,21.4044355 C8.47258065,21.3520161 8.45685484,21.2314516 8.36774194,21.1318548 C8.28387097,21.0479839 8.16330645,21.0112903 8.09516129,21.0794355 Z M7.52903226,20.6548387 C7.49233871,20.7229839 7.54475806,20.8068548 7.64959677,20.8592742 C7.73346774,20.9116935 7.83830645,20.8959677 7.875,20.8225806 C7.91169355,20.7544355 7.85927419,20.6705645 7.75443548,20.6181452 C7.64959677,20.5866935 7.56572581,20.6024194 7.52903226,20.6548387 Z M9.22741935,22.5209677 C9.14354839,22.5891129 9.175,22.746371 9.29556452,22.8459677 C9.41612903,22.9665323 9.56814516,22.9822581 9.63629032,22.8983871 C9.70443548,22.8302419 9.67298387,22.6729839 9.56814516,22.5733871 C9.45282258,22.4528226 9.29556452,22.4370968 9.22741935,22.5209677 Z M8.62983871,21.7504032 C8.54596774,21.8028226 8.54596774,21.9391129 8.62983871,22.0596774 C8.71370968,22.1802419 8.85524194,22.2326613 8.9233871,22.1802419 C9.00725806,22.1120968 9.00725806,21.9758065 8.9233871,21.8552419 C8.85,21.7346774 8.71370968,21.6822581 8.62983871,21.7504032 Z" id="github" fill="#fff" fill-rule="nonzero"></path>
            </g>
        </g>
    </g>
</svg>
