<?xml version="1.0" encoding="UTF-8"?>
<svg width="371px" height="32px" viewBox="0 0 371 32" version="1.1" xmlns="http://www.w3.org/2000/svg" xmlns:xlink="http://www.w3.org/1999/xlink">
    <g id="页面-1" stroke="none" stroke-width="1" fill="none" fill-rule="evenodd">
        <g id="Telemetry" transform="translate(-24.000000, -20.000000)">
            <g id="编组" transform="translate(24.000000, 20.000000)">
                <g id="telemetry" transform="translate(217.600000, 6.537600)" fill="#FFFFFF" fill-rule="nonzero">
                    <path d="M6.3344,19.0624 L6.3344,1.924 L0,1.924 L0,0 L15.096,0 L15.096,1.924 L8.7616,1.924 L8.7616,19.0624 L6.3344,19.0624 Z M18.056,19.0624 L18.056,0 L30.932,0 L30.932,1.924 L20.4832,1.924 L20.4832,8.584 L29.8664,8.584 L29.8664,10.4784 L20.4832,10.4784 L20.4832,17.168 L30.932,17.168 L30.932,19.0624 L18.056,19.0624 Z M34.484,19.0624 L34.484,0 L36.9112,0 L36.9112,17.168 L47.064,17.168 L47.064,19.0624 L34.484,19.0624 Z M50.024,19.0624 L50.024,0 L62.9,0 L62.9,1.924 L52.4512,1.924 L52.4512,8.584 L61.8344,8.584 L61.8344,10.4784 L52.4512,10.4784 L52.4512,17.168 L62.9,17.168 L62.9,19.0624 L50.024,19.0624 Z M66.452,19.0624 L66.452,0 L69.0568,0 L75.5096,13.2312 L81.9624,0 L84.5672,0 L84.5672,19.0624 L82.1696,19.0624 L82.1696,3.7888 L76.3384,15.7472 L74.7104,15.7472 L68.8496,3.7888 L68.8496,19.0624 L66.452,19.0624 Z M88.7112,19.0624 L88.7112,0 L101.5872,0 L101.5872,1.924 L91.1384,1.924 L91.1384,8.584 L100.5216,8.584 L100.5216,10.4784 L91.1384,10.4784 L91.1384,17.168 L101.5872,17.168 L101.5872,19.0624 L88.7112,19.0624 Z M110.2896,19.0624 L110.2896,1.924 L103.9552,1.924 L103.9552,0 L119.0512,0 L119.0512,1.924 L112.7168,1.924 L112.7168,19.0624 L110.2896,19.0624 Z M122.0112,19.0624 L122.0112,0 L130.388,0 C132.440267,0 133.935067,0.5328 134.8724,1.5984 C135.809733,2.664 136.2784,4.10453333 136.2784,5.92 C136.2784,7.32106667 135.938,8.48533333 135.2572,9.4128 C134.5764,10.3402667 133.565067,10.9618667 132.2232,11.2776 C132.617867,11.5144 132.9188,11.7857333 133.126,12.0916 C133.3332,12.3974667 133.545333,12.8069333 133.7624,13.32 L136.2488,19.0624 L133.7624,19.0624 L131.3352,13.5272 C131.078667,12.9352 130.767867,12.5109333 130.4028,12.2544 C130.037733,11.9978667 129.391467,11.8696 128.464,11.8696 L124.4384,11.8696 L124.4384,19.0624 L122.0112,19.0624 Z M124.4384,9.9752 L129.7072,9.9752 C130.989867,9.9752 132.0012,9.65453333 132.7412,9.0132 C133.4812,8.37186667 133.8512,7.3408 133.8512,5.92 C133.8512,3.256 132.5784,1.924 130.0328,1.924 L124.4384,1.924 L124.4384,9.9752 Z M144.1224,19.0624 L144.1224,11.9584 L137.3144,0 L139.8304,0 L145.336,9.8864 L150.8416,0 L153.3576,0 L146.5496,11.9584 L146.5496,19.0624 L144.1224,19.0624 Z" id="形状结合"></path>
                </g>
                <rect id="矩形" fill="#6667AB" x="201.6" y="3.2" width="1.6" height="25.6"></rect>
                <g id="logo">
                    <rect id="矩形" x="0" y="0" width="185.6" height="32"></rect>
                    <g id="AltLayer---Original---Complete---Blue" fill="#6667AB" fill-rule="nonzero">
                        <path d="M17.8673714,31.9734025 C18.1039468,31.973746 18.3382887,31.9271106 18.5569964,31.8360852 C18.7755323,31.7450598 18.9741388,31.6115444 19.1413051,31.4433115 L33.2284517,17.2808325 C33.3957898,17.1126169 33.5284232,16.9129483 33.6189644,16.6932093 C33.7095056,16.4734702 33.7562365,16.2379442 33.7562365,16.0000864 C33.7562365,15.7622286 33.7095056,15.5267025 33.6189644,15.3069462 C33.5284232,15.0872071 33.3957898,14.8875558 33.2284517,14.719392 L19.1413051,0.556930268 C18.9741388,0.38855576 18.7755323,0.255045529 18.5569964,0.164071443 C18.3382887,0.073097875 18.1039468,0.0264543605 17.8673714,0.0268194196 L17.8673714,31.9734025 Z" id="路径"></path>
                        <path d="M15.889381,26.0135696 C15.4284799,26.0135696 14.9675787,25.9042355 14.6160486,25.6810765 L0.527288712,16.8026988 C-0.175762904,16.3595589 -0.175762904,15.6407175 0.527288712,15.1975948 L14.6149663,6.31925167 C14.9664964,6.09768172 15.4273975,5.98663766 15.8882986,5.98663766 L15.889381,26.0135696 Z" id="路径" opacity="0.5"></path>
                        <path d="M15.889381,20.0264483 C15.4284799,20.0264483 14.9675787,19.9171142 14.6160486,19.6944734 L0.527288712,10.8160611 C-0.175762904,10.3729385 -0.175762904,9.65407979 0.527288712,9.21042172 L14.6149663,0.332617466 C14.9643145,0.109413376 15.4273975,0 15.889381,0 L15.889381,20.0264483 Z" id="路径" opacity="0.5"></path>
                        <path d="M15.889381,32 C15.4284799,32 14.9675787,31.8906659 14.6160486,31.6675069 L0.527288712,22.7896819 C-0.175762904,22.3459548 -0.175762904,21.6270788 0.527288712,21.1840425 L14.6149663,12.3056648 C14.9664964,12.0841121 15.4273975,11.9736035 15.8882986,11.9736035 L15.889381,32 Z" id="路径" opacity="0.5"></path>
                        <path d="M39.245061,26.9326324 L47.5521738,5.06904306 L53.4291057,5.06904306 L61.7362185,26.9326324 L56.0618447,26.9326324 L54.1027529,21.9761533 L46.8431348,21.9761533 L44.9180604,26.9326324 L39.245061,26.9326324 Z M47.5860194,17.9359735 L53.3600401,17.9359735 L50.4563647,10.331813 L47.5860194,17.9359735 Z" id="形状" opacity="0.5"></path>
                        <polygon id="路径" opacity="0.5" points="63.6331169 26.9326324 63.6331169 5.06904306 69.0698845 5.06904306 69.0698845 22.7228379 79.3381508 22.7228379 79.3381508 26.9326324"></polygon>
                        <path d="M107.975459,26.9326324 L116.282571,5.06904306 L122.159331,5.06904306 L130.466444,26.9326324 L124.792586,26.9326324 L122.833666,21.9761533 L115.573532,21.9761533 L113.648801,26.9326324 L107.975459,26.9326324 Z M116.316245,17.9359735 L122.090781,17.9359735 L119.186762,10.331813 L116.316245,17.9359735 Z" id="形状"></path>
                        <polygon id="路径" points="134.210246 26.9326324 134.210246 18.8862992 126.407552 5.06904306 132.080552 5.06904306 136.942975 14.1339278 141.807289 5.06904306 147.480116 5.06904306 139.680687 18.8862992 139.680687 26.9326324"></polygon>
                        <polygon id="路径" points="149.301421 26.9326324 149.301421 5.06904306 165.341474 5.06904306 165.341474 9.2814457 154.738016 9.2814457 154.738016 13.8647725 164.092109 13.8647725 164.092109 18.1422056 154.738016 18.1422056 154.738016 22.7256014 165.341474 22.7256014 165.341474 26.9352232"></polygon>
                        <path d="M167.1791,26.9326324 L167.1791,5.06904306 L178.053494,5.06904306 C180.618542,5.06904306 182.510114,5.74812352 183.726493,7.10631899 C184.941154,8.46449719 185.549344,10.2864039 185.549344,12.5720565 C185.549344,14.0436624 185.178245,15.3336493 184.43433,16.4419999 C183.692132,17.5502815 182.678483,18.3765916 181.3951,18.920844 C181.695759,19.1517755 181.953466,19.4331424 182.157914,19.7523358 C182.398441,20.1592728 182.608043,20.5850367 182.781566,21.0253094 L185.348332,26.9336687 L179.673615,26.9336687 L177.242575,21.3660933 C177.039845,20.8919667 176.780419,20.5468648 176.466016,20.3306147 C176.149895,20.1143647 175.699766,20.0067578 175.115629,20.0077942 L172.615867,20.0077942 L172.615867,26.9336687 L167.1791,26.9326324 Z M172.615867,15.7970151 L176.632667,15.7970151 C177.690986,15.7970151 178.519085,15.5311415 179.115249,14.9993944 C179.711412,14.4676472 180.010352,13.6585231 180.010352,12.5720565 C180.010352,10.3772221 178.96406,9.2794421 176.869758,9.27871666 L172.615867,9.27871666 L172.615867,15.7970151 Z" id="形状"></path>
                        <polygon id="路径" points="106.122027 22.7230106 95.8565093 22.7230106 95.8565093 5.06914669 95.8178532 5.06914669 95.8178532 5.05874872 90.3762751 5.05874872 90.3762751 26.9414413 95.8178532 26.9414413 95.8178532 26.9326324 106.122027 26.9326324"></polygon>
                        <polygon id="路径" opacity="0.5" points="76.5705449 9.27871666 83.061164 9.27871666 83.061164 26.9326324 88.4140908 26.9326324 88.4140908 5.06904306 76.5705449 5.06904306"></polygon>
                    </g>
                </g>
            </g>
        </g>
    </g>
</svg>